<svg width="140" height="41" viewBox="0 0 140 41" fill="none" xmlns="http://www.w3.org/2000/svg">
<path d="M51.462 27.1415C50.322 27.1415 49.338 26.9555 48.51 26.5835C47.694 26.1995 47.058 25.6475 46.602 24.9275C46.158 24.1955 45.912 23.3075 45.864 22.2635C45.852 21.7475 45.846 21.2015 45.846 20.6255C45.846 20.0375 45.852 19.4795 45.864 18.9515C45.912 17.9315 46.164 17.0675 46.62 16.3595C47.076 15.6515 47.718 15.1115 48.546 14.7395C49.374 14.3675 50.346 14.1815 51.462 14.1815C52.362 14.1815 53.16 14.2955 53.856 14.5235C54.552 14.7395 55.134 15.0335 55.602 15.4055C56.082 15.7775 56.442 16.1855 56.682 16.6295C56.934 17.0735 57.066 17.5115 57.078 17.9435C57.09 18.0515 57.054 18.1415 56.97 18.2135C56.898 18.2855 56.808 18.3215 56.7 18.3215H54.072C53.94 18.3215 53.838 18.3035 53.766 18.2675C53.706 18.2195 53.652 18.1535 53.604 18.0695C53.52 17.8895 53.394 17.7035 53.226 17.5115C53.07 17.3075 52.848 17.1335 52.56 16.9895C52.284 16.8455 51.918 16.7735 51.462 16.7735C50.778 16.7735 50.238 16.9535 49.842 17.3135C49.458 17.6735 49.248 18.2495 49.212 19.0415C49.176 20.0735 49.176 21.1175 49.212 22.1735C49.248 23.0135 49.47 23.6195 49.878 23.9915C50.286 24.3635 50.826 24.5495 51.498 24.5495C51.954 24.5495 52.356 24.4715 52.704 24.3155C53.064 24.1595 53.346 23.9195 53.55 23.5955C53.754 23.2595 53.856 22.8335 53.856 22.3175V21.9755H52.164C52.032 21.9755 51.918 21.9335 51.822 21.8495C51.738 21.7535 51.696 21.6395 51.696 21.5075V20.1755C51.696 20.0435 51.738 19.9355 51.822 19.8515C51.918 19.7555 52.032 19.7075 52.164 19.7075H56.7C56.832 19.7075 56.94 19.7555 57.024 19.8515C57.108 19.9355 57.15 20.0435 57.15 20.1755V22.2275C57.15 23.2595 56.916 24.1415 56.448 24.8735C55.98 25.6055 55.314 26.1695 54.45 26.5655C53.598 26.9495 52.602 27.1415 51.462 27.1415ZM63.4451 27.1415C62.4371 27.1415 61.5851 26.9795 60.8891 26.6555C60.2051 26.3315 59.6771 25.8695 59.3051 25.2695C58.9451 24.6575 58.7411 23.9315 58.6931 23.0915C58.6811 22.8515 58.6751 22.5815 58.6751 22.2815C58.6751 21.9695 58.6811 21.6995 58.6931 21.4715C58.7411 20.6195 58.9571 19.8935 59.3411 19.2935C59.7251 18.6935 60.2591 18.2315 60.9431 17.9075C61.6391 17.5835 62.4731 17.4215 63.4451 17.4215C64.4291 17.4215 65.2631 17.5835 65.9471 17.9075C66.6431 18.2315 67.1831 18.6935 67.5671 19.2935C67.9511 19.8935 68.1671 20.6195 68.2151 21.4715C68.2271 21.6995 68.2331 21.9695 68.2331 22.2815C68.2331 22.5815 68.2271 22.8515 68.2151 23.0915C68.1671 23.9315 67.9571 24.6575 67.5851 25.2695C67.2251 25.8695 66.6971 26.3315 66.0011 26.6555C65.3171 26.9795 64.4651 27.1415 63.4451 27.1415ZM63.4451 24.9455C63.9851 24.9455 64.3751 24.7835 64.6151 24.4595C64.8671 24.1355 65.0111 23.6495 65.0471 23.0015C65.0591 22.8215 65.0651 22.5815 65.0651 22.2815C65.0651 21.9815 65.0591 21.7415 65.0471 21.5615C65.0111 20.9255 64.8671 20.4455 64.6151 20.1215C64.3751 19.7855 63.9851 19.6175 63.4451 19.6175C62.9171 19.6175 62.5271 19.7855 62.2751 20.1215C62.0231 20.4455 61.8851 20.9255 61.8611 21.5615C61.8491 21.7415 61.8431 21.9815 61.8431 22.2815C61.8431 22.5815 61.8491 22.8215 61.8611 23.0015C61.8851 23.6495 62.0231 24.1355 62.2751 24.4595C62.5271 24.7835 62.9171 24.9455 63.4451 24.9455Z" fill="black"/>
<path d="M75.3674 27.1415C74.2274 27.1415 73.2494 26.9555 72.4334 26.5835C71.6294 26.2115 70.9994 25.6655 70.5434 24.9455C70.0994 24.2255 69.8534 23.3315 69.8054 22.2635C69.7934 21.7715 69.7874 21.2435 69.7874 20.6795C69.7874 20.1155 69.7934 19.5755 69.8054 19.0595C69.8534 18.0155 70.1054 17.1335 70.5614 16.4135C71.0174 15.6815 71.6534 15.1295 72.4694 14.7575C73.2854 14.3735 74.2514 14.1815 75.3674 14.1815C76.1594 14.1815 76.8914 14.2835 77.5634 14.4875C78.2354 14.6795 78.8234 14.9675 79.3274 15.3515C79.8314 15.7235 80.2214 16.1795 80.4974 16.7195C80.7854 17.2475 80.9354 17.8475 80.9474 18.5195C80.9594 18.6275 80.9234 18.7175 80.8394 18.7895C80.7674 18.8615 80.6774 18.8975 80.5694 18.8975H78.1394C77.9834 18.8975 77.8634 18.8675 77.7794 18.8075C77.6954 18.7355 77.6234 18.6095 77.5634 18.4295C77.3954 17.7935 77.1194 17.3615 76.7354 17.1335C76.3634 16.8935 75.9014 16.7735 75.3494 16.7735C74.6894 16.7735 74.1674 16.9595 73.7834 17.3315C73.3994 17.6915 73.1894 18.2975 73.1534 19.1495C73.1174 20.1335 73.1174 21.1415 73.1534 22.1735C73.1894 23.0255 73.3994 23.6375 73.7834 24.0095C74.1674 24.3695 74.6894 24.5495 75.3494 24.5495C75.9014 24.5495 76.3694 24.4295 76.7534 24.1895C77.1374 23.9495 77.4074 23.5175 77.5634 22.8935C77.6114 22.7135 77.6774 22.5935 77.7614 22.5335C77.8574 22.4615 77.9834 22.4255 78.1394 22.4255H80.5694C80.6774 22.4255 80.7674 22.4615 80.8394 22.5335C80.9234 22.6055 80.9594 22.6955 80.9474 22.8035C80.9354 23.4755 80.7854 24.0815 80.4974 24.6215C80.2214 25.1495 79.8314 25.6055 79.3274 25.9895C78.8234 26.3615 78.2354 26.6495 77.5634 26.8535C76.8914 27.0455 76.1594 27.1415 75.3674 27.1415ZM87.0701 27.1415C86.0621 27.1415 85.2101 26.9795 84.5141 26.6555C83.8301 26.3315 83.3021 25.8695 82.9301 25.2695C82.5701 24.6575 82.3661 23.9315 82.3181 23.0915C82.3061 22.8515 82.3001 22.5815 82.3001 22.2815C82.3001 21.9695 82.3061 21.6995 82.3181 21.4715C82.3661 20.6195 82.5821 19.8935 82.9661 19.2935C83.3501 18.6935 83.8841 18.2315 84.5681 17.9075C85.2641 17.5835 86.0981 17.4215 87.0701 17.4215C88.0541 17.4215 88.8881 17.5835 89.5721 17.9075C90.2681 18.2315 90.8081 18.6935 91.1921 19.2935C91.5761 19.8935 91.7921 20.6195 91.8401 21.4715C91.8521 21.6995 91.8581 21.9695 91.8581 22.2815C91.8581 22.5815 91.8521 22.8515 91.8401 23.0915C91.7921 23.9315 91.5821 24.6575 91.2101 25.2695C90.8501 25.8695 90.3221 26.3315 89.6261 26.6555C88.9421 26.9795 88.0901 27.1415 87.0701 27.1415ZM87.0701 24.9455C87.6101 24.9455 88.0001 24.7835 88.2401 24.4595C88.4921 24.1355 88.6361 23.6495 88.6721 23.0015C88.6841 22.8215 88.6901 22.5815 88.6901 22.2815C88.6901 21.9815 88.6841 21.7415 88.6721 21.5615C88.6361 20.9255 88.4921 20.4455 88.2401 20.1215C88.0001 19.7855 87.6101 19.6175 87.0701 19.6175C86.5421 19.6175 86.1521 19.7855 85.9001 20.1215C85.6481 20.4455 85.5101 20.9255 85.4861 21.5615C85.4741 21.7415 85.4681 21.9815 85.4681 22.2815C85.4681 22.5815 85.4741 22.8215 85.4861 23.0015C85.5101 23.6495 85.6481 24.1355 85.9001 24.4595C86.1521 24.7835 86.5421 24.9455 87.0701 24.9455ZM94.0784 26.9615C93.9464 26.9615 93.8384 26.9195 93.7544 26.8355C93.6704 26.7515 93.6284 26.6435 93.6284 26.5115V18.0515C93.6284 17.9315 93.6704 17.8295 93.7544 17.7455C93.8384 17.6495 93.9464 17.6015 94.0784 17.6015H96.1484C96.2804 17.6015 96.3884 17.6495 96.4724 17.7455C96.5564 17.8295 96.5984 17.9315 96.5984 18.0515V18.7715C96.9224 18.3995 97.3064 18.1115 97.7504 17.9075C98.2064 17.7035 98.7164 17.6015 99.2804 17.6015H100.072C100.192 17.6015 100.294 17.6435 100.378 17.7275C100.474 17.8115 100.522 17.9195 100.522 18.0515V19.9055C100.522 20.0255 100.474 20.1335 100.378 20.2295C100.294 20.3135 100.192 20.3555 100.072 20.3555H98.3264C97.8344 20.3555 97.4504 20.4935 97.1744 20.7695C96.9104 21.0335 96.7784 21.4115 96.7784 21.9035V26.5115C96.7784 26.6435 96.7304 26.7515 96.6344 26.8355C96.5504 26.9195 96.4424 26.9615 96.3104 26.9615H94.0784ZM106.16 27.1415C105.152 27.1415 104.3 26.9795 103.604 26.6555C102.92 26.3315 102.392 25.8695 102.02 25.2695C101.66 24.6575 101.456 23.9315 101.408 23.0915C101.396 22.8515 101.39 22.5815 101.39 22.2815C101.39 21.9695 101.396 21.6995 101.408 21.4715C101.456 20.6195 101.672 19.8935 102.056 19.2935C102.44 18.6935 102.974 18.2315 103.658 17.9075C104.354 17.5835 105.188 17.4215 106.16 17.4215C107.144 17.4215 107.978 17.5835 108.662 17.9075C109.358 18.2315 109.898 18.6935 110.282 19.2935C110.666 19.8935 110.882 20.6195 110.93 21.4715C110.942 21.6995 110.948 21.9695 110.948 22.2815C110.948 22.5815 110.942 22.8515 110.93 23.0915C110.882 23.9315 110.672 24.6575 110.3 25.2695C109.94 25.8695 109.412 26.3315 108.716 26.6555C108.032 26.9795 107.18 27.1415 106.16 27.1415ZM106.16 24.9455C106.7 24.9455 107.09 24.7835 107.33 24.4595C107.582 24.1355 107.726 23.6495 107.762 23.0015C107.774 22.8215 107.78 22.5815 107.78 22.2815C107.78 21.9815 107.774 21.7415 107.762 21.5615C107.726 20.9255 107.582 20.4455 107.33 20.1215C107.09 19.7855 106.7 19.6175 106.16 19.6175C105.632 19.6175 105.242 19.7855 104.99 20.1215C104.738 20.4455 104.6 20.9255 104.576 21.5615C104.564 21.7415 104.558 21.9815 104.558 22.2815C104.558 22.5815 104.564 22.8215 104.576 23.0015C104.6 23.6495 104.738 24.1355 104.99 24.4595C105.242 24.7835 105.632 24.9455 106.16 24.9455ZM113.168 26.9615C113.036 26.9615 112.928 26.9195 112.844 26.8355C112.76 26.7515 112.718 26.6435 112.718 26.5115V18.0515C112.718 17.9195 112.76 17.8115 112.844 17.7275C112.928 17.6435 113.036 17.6015 113.168 17.6015H115.238C115.37 17.6015 115.478 17.6435 115.562 17.7275C115.646 17.8115 115.688 17.9195 115.688 18.0515V18.7355C116 18.3635 116.408 18.0515 116.912 17.7995C117.416 17.5475 118.01 17.4215 118.694 17.4215C119.39 17.4215 120.002 17.5775 120.53 17.8895C121.07 18.2015 121.49 18.6635 121.79 19.2755C122.102 19.8755 122.258 20.6135 122.258 21.4895V26.5115C122.258 26.6435 122.21 26.7515 122.114 26.8355C122.03 26.9195 121.928 26.9615 121.808 26.9615H119.54C119.42 26.9615 119.312 26.9195 119.216 26.8355C119.132 26.7515 119.09 26.6435 119.09 26.5115V21.5975C119.09 21.0335 118.952 20.6015 118.676 20.3015C118.412 19.9895 118.016 19.8335 117.488 19.8335C116.996 19.8335 116.6 19.9895 116.3 20.3015C116.012 20.6015 115.868 21.0335 115.868 21.5975V26.5115C115.868 26.6435 115.82 26.7515 115.724 26.8355C115.64 26.9195 115.538 26.9615 115.418 26.9615H113.168ZM127.075 27.1415C126.427 27.1415 125.845 27.0215 125.329 26.7815C124.825 26.5295 124.423 26.1935 124.123 25.7735C123.823 25.3535 123.673 24.8795 123.673 24.3515C123.673 23.4995 124.021 22.8275 124.717 22.3355C125.413 21.8315 126.337 21.4895 127.489 21.3095L129.739 20.9675V20.7155C129.739 20.2835 129.649 19.9535 129.469 19.7255C129.289 19.4975 128.959 19.3835 128.479 19.3835C128.143 19.3835 127.867 19.4495 127.651 19.5815C127.447 19.7135 127.285 19.8935 127.165 20.1215C127.057 20.2775 126.907 20.3555 126.715 20.3555H124.699C124.567 20.3555 124.465 20.3195 124.393 20.2475C124.321 20.1635 124.291 20.0675 124.303 19.9595C124.303 19.7435 124.381 19.4975 124.537 19.2215C124.705 18.9335 124.957 18.6515 125.293 18.3755C125.629 18.0995 126.061 17.8715 126.589 17.6915C127.117 17.5115 127.753 17.4215 128.497 17.4215C129.277 17.4215 129.943 17.5115 130.495 17.6915C131.047 17.8715 131.491 18.1235 131.827 18.4475C132.175 18.7715 132.433 19.1555 132.601 19.5995C132.769 20.0315 132.853 20.5115 132.853 21.0395V26.5115C132.853 26.6435 132.805 26.7515 132.709 26.8355C132.625 26.9195 132.523 26.9615 132.403 26.9615H130.315C130.183 26.9615 130.075 26.9195 129.991 26.8355C129.907 26.7515 129.865 26.6435 129.865 26.5115V25.8815C129.709 26.1095 129.499 26.3195 129.235 26.5115C128.971 26.7035 128.659 26.8535 128.299 26.9615C127.951 27.0815 127.543 27.1415 127.075 27.1415ZM127.921 25.0895C128.269 25.0895 128.581 25.0175 128.857 24.8735C129.145 24.7175 129.367 24.4835 129.523 24.1715C129.691 23.8475 129.775 23.4455 129.775 22.9655V22.7135L128.245 22.9835C127.681 23.0795 127.267 23.2295 127.003 23.4335C126.751 23.6255 126.625 23.8535 126.625 24.1175C126.625 24.3215 126.685 24.4955 126.805 24.6395C126.925 24.7835 127.081 24.8975 127.273 24.9815C127.465 25.0535 127.681 25.0895 127.921 25.0895Z" fill="#EC5863"/>
<path d="M14.1076 4.82771C15.5195 4.35085 17.0829 5.0256 17.5989 6.33416C17.9939 7.33602 17.6599 8.41809 16.8493 9.08485L17.3025 10.2762L18.0128 11.0821C18.175 11.2665 18.4191 11.3562 18.6626 11.3289C19.3192 11.2551 19.9724 11.2581 20.6127 11.3302C20.8297 11.3549 21.0447 11.2862 21.1989 11.1385L21.7011 10.6594L22.0644 9.58983C21.7421 9.15656 21.6289 8.58562 21.8121 8.04579C22.1231 7.13067 23.1635 6.66572 24.0966 7.05013C24.9005 7.38089 25.3447 8.26305 25.1183 9.07813C24.9745 9.59729 24.6014 9.98372 24.1394 10.1724L23.7372 11.3577L23.838 12.0137C23.8726 12.2392 24.0103 12.4372 24.2095 12.5569C24.8796 12.9616 25.4962 13.4545 26.0389 14.0227C26.2212 14.214 26.4913 14.2977 26.7497 14.2487L28.0793 13.9971L29.5763 13.1877C29.5769 12.458 29.9656 11.7561 30.6582 11.3816C31.7053 10.8158 33.0423 11.2147 33.6136 12.2742C34.1293 13.23 33.8231 14.4228 32.9116 15.0001C32.1999 15.45 31.3257 15.4253 30.6473 15.0294L29.1414 15.843L28.3046 16.7208C28.08 16.9563 28.0025 17.2915 28.0922 17.6069C28.0927 17.6087 28.0931 17.61 28.0936 17.6118C28.247 18.1553 28.3423 18.7008 28.3848 19.2412C28.4095 19.563 28.597 19.8542 28.8877 20.0106L29.9968 20.6071L32.1879 21.0338C32.5702 20.7062 33.0997 20.5509 33.6434 20.6563C34.6183 20.8464 35.254 21.8017 35.014 22.7553C34.8076 23.5719 33.995 24.1094 33.1386 23.9944C32.5546 23.9159 32.0803 23.5659 31.8228 23.0989L29.6175 22.6699L28.2614 22.8204C28.0114 22.8487 27.7944 23.001 27.6945 23.2261C27.297 24.1147 26.7446 24.9301 26.0594 25.6322C25.8892 25.8066 25.8271 26.058 25.8919 26.2945L26.2419 27.5821L27.0875 28.874C28.0025 28.7472 28.9598 29.1454 29.4968 29.966C30.2186 31.0685 29.9103 32.5168 28.8105 33.2138C27.7112 33.9107 26.2029 33.5894 25.4673 32.5004C24.9523 31.7381 24.9375 30.8033 25.3418 30.0655L24.4441 28.6942L23.3481 27.8047C23.1857 27.6723 22.966 27.6356 22.7702 27.7027C22.5529 27.7773 22.3312 27.8437 22.1043 27.9014C20.8719 28.2148 19.6264 28.2453 18.4394 28.0359C18.2654 28.0056 18.0882 28.0527 17.9564 28.1647L17.3778 28.658L16.9542 29.705C17.2521 30.155 17.3328 30.7303 17.1193 31.2585C16.7564 32.1549 15.6901 32.5618 14.7795 32.1278C13.9952 31.7541 13.6008 30.8499 13.8732 30.0491C14.0466 29.5391 14.4405 29.174 14.9132 29.0112L15.3825 27.8508L15.2833 26.827C14.4111 26.2853 13.6329 25.5932 12.9941 24.7778L11.5127 24.9083L10.1315 25.5704C10.1495 26.4857 9.67895 27.3522 8.84219 27.766C7.65982 28.3502 6.19513 27.8101 5.57109 26.559C4.94722 25.3085 5.39913 23.821 6.5815 23.2368C7.46631 22.7994 8.50861 22.9917 9.23888 23.6407L10.5415 23.0159L11.4404 22.0664C11.4992 22.0042 11.5203 21.9163 11.497 21.8337L11.4966 21.8324C11.0618 20.2922 11.0894 18.7396 11.4965 17.3161C11.5184 17.238 11.5006 17.1533 11.4464 17.0906L10.6537 16.1632L8.95687 15.2768C8.49381 15.4737 7.94251 15.4681 7.45522 15.2133C6.57492 14.7529 6.24868 13.6643 6.76251 12.8268C7.21363 12.0923 8.18713 11.8208 8.98358 12.2067C9.49911 12.4563 9.83462 12.9175 9.93744 13.4252L11.6343 14.3117L12.8371 14.4338C12.9206 14.4425 13.0016 14.4086 13.0539 14.3454C13.5925 13.6886 14.2356 13.1103 14.968 12.6378C15.1689 12.5075 15.2925 12.2897 15.2933 12.0512L15.2952 10.9791L14.8118 9.70947C13.7899 9.62786 12.8602 9.0116 12.4849 8.06001C11.9689 6.75145 12.6955 5.30396 14.1076 4.82771Z" fill="#EC5863"/>
<path d="M25.9397 18.157C24.9953 14.8117 21.4782 12.7995 18.0842 13.6626C14.6901 14.5257 12.7043 17.9373 13.6488 21.2825C14.5933 24.6278 18.1104 26.6399 21.5044 25.7768C24.8984 24.9138 26.8842 21.5022 25.9397 18.157Z" fill="#F58A97"/>
<path d="M20.9569 23.9087C17.8652 24.7028 14.6822 23.1362 13.417 20.3485C13.4542 20.6612 13.5159 20.9754 13.6035 21.2889C14.5377 24.6307 18.0606 26.6293 21.4724 25.753C24.8842 24.8767 26.8926 21.4575 25.9584 18.1157C25.8708 17.8022 25.7604 17.5005 25.6294 17.2119C25.9878 20.2324 24.0485 23.1147 20.9569 23.9087Z" fill="#F07281"/>
<path d="M11.3122 32.7698C11.0444 31.8181 10.0426 31.2466 9.07483 31.4935C8.10702 31.7404 7.53961 32.7121 7.80749 33.6639C8.07537 34.6157 9.07709 35.1871 10.0449 34.9402C11.0127 34.6933 11.5801 33.7216 11.3122 32.7698Z" fill="#EB5569"/>
<path d="M34.1028 27.345C33.9258 26.7163 33.2642 26.3389 32.625 26.502C31.9857 26.665 31.6109 27.3069 31.7879 27.9355C31.9648 28.5642 32.6264 28.9416 33.2657 28.7786C33.9049 28.6155 34.2797 27.9737 34.1028 27.345Z" fill="#EB5569"/>
<path d="M30.8314 5.95322C30.5708 5.02725 29.5962 4.47131 28.6547 4.7115C27.7131 4.9517 27.1611 5.89706 27.4217 6.82304C27.6823 7.74901 28.6569 8.30495 29.5984 8.06476C30.54 7.82456 31.092 6.8792 30.8314 5.95322Z" fill="#EB5569"/>
<path d="M20.1848 21.6026C19.9418 20.7393 19.0332 20.221 18.1554 20.445C17.2776 20.6689 16.7629 21.5503 17.0059 22.4136C17.2489 23.2768 18.1574 23.7952 19.0353 23.5712C19.9131 23.3473 20.4278 22.4659 20.1848 21.6026Z" fill="#EB5569"/>
<path d="M24.3035 19.1943C24.1381 18.6067 23.5197 18.2539 22.9222 18.4063C22.3247 18.5587 21.9744 19.1587 22.1398 19.7463C22.3052 20.3339 22.9236 20.6866 23.5211 20.5342C24.1186 20.3818 24.4689 19.7819 24.3035 19.1943Z" fill="#EB5569"/>
<path d="M19.9517 16.7688C19.8128 16.2753 19.2935 15.9791 18.7918 16.1071C18.29 16.2351 17.9959 16.7388 18.1348 17.2323C18.2736 17.7257 18.7929 18.0219 19.2947 17.8939C19.7964 17.7659 20.0906 17.2622 19.9517 16.7688Z" fill="#EB5569"/>
</svg>
