<svg width="547" height="385" viewBox="0 0 547 385" fill="none" xmlns="http://www.w3.org/2000/svg">
<path opacity="0.6" d="M317.818 67.8357C282.751 66.6462 249.325 55.5971 217.456 43.5109C185.586 31.4247 153.999 18.0311 119.753 11.6267C97.7341 7.50292 72.5528 6.92294 54.8151 18.4439C37.7422 29.5275 32.2275 48.6619 29.2612 66.4152C27.0301 79.7745 25.7358 93.8316 31.8347 106.341C36.0803 115.021 43.6145 122.319 48.827 130.636C66.9575 159.571 54.1403 195.255 34.4888 223.531C25.2725 236.802 14.5805 249.429 7.4693 263.54C0.358105 277.651 -2.9356 293.817 3.28921 308.208C9.45862 322.462 24.1544 333.187 40.079 340.722C72.4219 356.013 110.531 360.387 147.694 362.894C229.956 368.384 312.661 366.005 395.14 363.626C425.665 362.741 456.325 361.852 486.352 357.236C503.027 354.676 520.245 350.616 532.353 340.815C547.718 328.37 551.531 307.304 541.232 291.699C523.957 265.531 476.198 259.028 464.121 230.943C457.479 215.485 464.303 198.263 473.962 183.925C494.676 153.172 529.406 126.188 531.235 91.03C532.494 66.8822 515.798 42.7048 489.983 31.2772C462.928 19.2893 425.408 20.8032 405.449 40.6159C384.896 61.0283 348.776 68.8826 317.818 67.8357Z" fill="#587EEC"/>
<path d="M122.004 356.357C122.004 356.357 94.3044 335.92 89.0718 309.924C86.9498 299.005 81.258 289.053 72.85 281.559C68.8278 278.033 64.4836 274.875 59.8716 272.122" stroke="#9AB1F3" stroke-width="2" stroke-miterlimit="10"/>
<path d="M56.4822 255.745C58.9097 258.949 60.0076 272.53 60.0076 272.53C60.0076 272.53 47.0291 267.541 44.5966 264.341C43.4286 262.803 42.9345 260.875 43.223 258.981C43.5115 257.087 44.5591 255.383 46.1352 254.243C47.7113 253.103 49.6869 252.621 51.6273 252.903C53.5678 253.184 55.3141 254.207 56.4822 255.745Z" fill="#587EEC"/>
<path d="M79.7599 266.401C80.0117 270.377 73.3789 282.36 73.3789 282.36C73.3789 282.36 65.2554 271.281 64.9986 267.305C64.9009 265.409 65.5725 263.552 66.8679 262.137C68.1633 260.721 69.9781 259.86 71.9191 259.741C73.8601 259.622 75.771 260.255 77.2377 261.501C78.7044 262.748 79.6087 264.508 79.7548 266.401H79.7599Z" fill="#587EEC"/>
<path d="M102.322 297.031C100.489 300.59 88.5581 307.668 88.5581 307.668C88.5581 307.668 87.2839 294.102 89.1171 290.544C90.0195 288.87 91.5591 287.609 93.4044 287.032C95.2497 286.456 97.2533 286.609 98.9841 287.459C100.715 288.309 102.034 289.789 102.659 291.579C103.283 293.369 103.162 295.327 102.322 297.031Z" fill="#587EEC"/>
<path d="M114.051 323.947C112.858 327.756 102.327 336.696 102.327 336.696C102.327 336.696 98.7161 323.539 99.9097 319.724C100.483 317.894 101.778 316.361 103.51 315.463C105.242 314.565 107.268 314.375 109.144 314.935C111.019 315.495 112.59 316.759 113.51 318.449C114.43 320.139 114.625 322.116 114.051 323.947Z" fill="#587EEC"/>
<path d="M61.3724 291.994C65.4014 292.524 78.1381 286.911 78.1381 286.911C78.1381 286.911 67.3907 278.221 63.3415 277.691C61.3981 277.436 59.4305 277.945 57.8717 279.106C56.3128 280.267 55.2903 281.985 55.0292 283.881C54.7681 285.778 55.2897 287.698 56.4792 289.22C57.6688 290.741 59.4289 291.739 61.3724 291.994Z" fill="#587EEC"/>
<path d="M75.499 323.308C79.528 322.634 89.9379 313.566 89.9379 313.566C89.9379 313.566 77.0149 308.415 72.991 309.088C72.0275 309.242 71.1049 309.581 70.2764 310.085C69.4479 310.589 68.7298 311.248 68.1637 312.024C67.5976 312.801 67.1946 313.679 66.978 314.608C66.7614 315.537 66.7354 316.498 66.9017 317.437C67.068 318.376 67.4231 319.274 67.9467 320.078C68.4702 320.882 69.1518 321.577 69.952 322.123C70.7523 322.669 71.6554 323.054 72.6091 323.258C73.5629 323.461 74.5485 323.478 75.5091 323.308H75.499Z" fill="#587EEC"/>
<path d="M93.5036 351.908C97.588 351.908 109.423 344.688 109.423 344.688C109.423 344.688 97.5829 337.478 93.4986 337.478C91.5378 337.478 89.6573 338.238 88.2708 339.591C86.8843 340.944 86.1053 342.779 86.1053 344.693C86.1053 346.607 86.8843 348.442 88.2708 349.795C89.6573 351.148 91.5378 351.908 93.4986 351.908H93.5036Z" fill="#587EEC"/>
<path d="M391.091 179.595C391.091 179.595 408.164 150.08 433.899 141.577C444.705 138.074 454.057 131.247 460.551 122.118C463.596 117.754 466.225 113.126 468.402 108.292" stroke="#9AB1F3" stroke-width="2" stroke-miterlimit="10"/>
<path d="M484.559 102.885C481.628 105.657 467.984 108.528 467.984 108.528C467.984 108.528 471.333 95.3062 474.264 92.5292C475.679 91.2364 477.558 90.5376 479.495 90.5831C481.433 90.6285 483.274 91.4147 484.624 92.7723C485.973 94.1299 486.723 95.9504 486.711 97.8418C486.698 99.7333 485.926 101.544 484.559 102.885Z" fill="#587EEC"/>
<path d="M476.843 126.787C472.814 127.564 459.785 122.737 459.785 122.737C459.785 122.737 469.958 113.399 473.962 112.637C474.924 112.429 475.918 112.41 476.887 112.582C477.856 112.754 478.78 113.113 479.604 113.638C480.429 114.163 481.138 114.844 481.689 115.64C482.241 116.436 482.624 117.332 482.816 118.275C483.007 119.217 483.004 120.188 482.807 121.129C482.609 122.071 482.221 122.964 481.664 123.757C481.108 124.55 480.395 125.227 479.567 125.747C478.739 126.267 477.813 126.621 476.843 126.787Z" fill="#587EEC"/>
<path d="M448.761 152.68C444.903 151.378 436.135 140.781 436.135 140.781C436.135 140.781 449.733 137.743 453.601 139.046C454.53 139.347 455.389 139.825 456.127 140.452C456.866 141.079 457.469 141.844 457.903 142.701C458.336 143.557 458.591 144.49 458.652 145.443C458.713 146.397 458.579 147.353 458.259 148.256C457.938 149.159 457.437 149.991 456.785 150.703C456.132 151.415 455.341 151.994 454.458 152.406C453.574 152.817 452.615 153.054 451.637 153.101C450.66 153.148 449.682 153.005 448.761 152.68Z" fill="#587EEC"/>
<path d="M422.955 167.602C418.926 166.954 408.471 157.934 408.471 157.934C408.471 157.934 421.359 152.695 425.383 153.344C427.319 153.655 429.05 154.704 430.195 156.26C431.339 157.816 431.803 159.753 431.484 161.643C431.166 163.533 430.091 165.222 428.496 166.339C426.901 167.456 424.917 167.908 422.98 167.597L422.955 167.602Z" fill="#587EEC"/>
<path d="M448.409 112.401C448.403 116.387 455.812 127.952 455.812 127.952C455.812 127.952 463.21 116.402 463.21 112.421C463.236 111.458 463.064 110.499 462.704 109.602C462.344 108.705 461.804 107.887 461.115 107.197C460.426 106.507 459.603 105.959 458.693 105.584C457.784 105.21 456.807 105.017 455.819 105.017C454.832 105.017 453.855 105.21 452.946 105.584C452.036 105.959 451.213 106.507 450.524 107.197C449.835 107.887 449.295 108.705 448.935 109.602C448.575 110.499 448.403 111.458 448.429 112.421L448.409 112.401Z" fill="#587EEC"/>
<path d="M418.478 130.223C419.697 134.027 430.293 142.899 430.293 142.899C430.293 142.899 433.818 129.717 432.59 125.913C431.952 124.15 430.639 122.697 428.926 121.861C427.214 121.024 425.235 120.869 423.408 121.428C421.58 121.987 420.046 123.216 419.128 124.856C418.211 126.497 417.981 128.421 418.488 130.223H418.478Z" fill="#587EEC"/>
<path d="M391.851 151.442C392.395 155.374 401.299 165.877 401.299 165.877C401.299 165.877 407.046 153.467 406.502 149.52C406.394 148.563 406.091 147.638 405.611 146.797C405.131 145.957 404.484 145.219 403.708 144.626C402.931 144.033 402.041 143.598 401.09 143.346C400.138 143.094 399.145 143.03 398.168 143.158C397.191 143.287 396.25 143.604 395.401 144.092C394.551 144.581 393.811 145.23 393.222 146.002C392.634 146.773 392.209 147.652 391.974 148.586C391.738 149.521 391.697 150.491 391.851 151.442Z" fill="#587EEC"/>
<path opacity="0.25" d="M484.559 102.885C481.628 105.657 467.984 108.528 467.984 108.528C467.984 108.528 471.333 95.3062 474.264 92.5292C475.679 91.2364 477.558 90.5376 479.495 90.5831C481.433 90.6285 483.274 91.4147 484.624 92.7723C485.973 94.1299 486.723 95.9504 486.711 97.8418C486.698 99.7333 485.926 101.544 484.559 102.885Z" fill="black"/>
<path opacity="0.25" d="M476.843 126.787C472.814 127.564 459.785 122.737 459.785 122.737C459.785 122.737 469.958 113.399 473.962 112.637C474.924 112.429 475.918 112.41 476.887 112.582C477.856 112.754 478.78 113.113 479.604 113.638C480.429 114.163 481.138 114.844 481.689 115.64C482.241 116.436 482.624 117.332 482.816 118.275C483.007 119.217 483.004 120.188 482.807 121.129C482.609 122.071 482.221 122.964 481.664 123.757C481.108 124.55 480.395 125.227 479.567 125.747C478.739 126.267 477.813 126.621 476.843 126.787Z" fill="black"/>
<path opacity="0.25" d="M448.761 152.68C444.903 151.378 436.135 140.781 436.135 140.781C436.135 140.781 449.733 137.743 453.601 139.046C454.53 139.347 455.389 139.825 456.127 140.452C456.866 141.079 457.469 141.844 457.903 142.701C458.336 143.557 458.591 144.49 458.652 145.443C458.713 146.397 458.579 147.353 458.259 148.256C457.938 149.159 457.437 149.991 456.785 150.703C456.132 151.415 455.341 151.994 454.458 152.406C453.574 152.817 452.615 153.054 451.637 153.101C450.66 153.148 449.682 153.005 448.761 152.68Z" fill="black"/>
<path opacity="0.25" d="M422.955 167.602C418.926 166.954 408.471 157.934 408.471 157.934C408.471 157.934 421.359 152.695 425.383 153.344C427.319 153.655 429.05 154.704 430.195 156.26C431.339 157.816 431.803 159.753 431.484 161.643C431.166 163.533 430.091 165.222 428.496 166.339C426.901 167.456 424.917 167.908 422.98 167.597L422.955 167.602Z" fill="black"/>
<path opacity="0.25" d="M448.409 112.401C448.403 116.387 455.812 127.952 455.812 127.952C455.812 127.952 463.21 116.402 463.21 112.421C463.236 111.458 463.064 110.499 462.704 109.602C462.344 108.705 461.804 107.887 461.115 107.197C460.426 106.507 459.603 105.959 458.693 105.584C457.784 105.21 456.807 105.017 455.819 105.017C454.832 105.017 453.855 105.21 452.946 105.584C452.036 105.959 451.213 106.507 450.524 107.197C449.835 107.887 449.295 108.705 448.935 109.602C448.575 110.499 448.403 111.458 448.429 112.421L448.409 112.401Z" fill="black"/>
<path opacity="0.25" d="M418.478 130.223C419.697 134.027 430.293 142.899 430.293 142.899C430.293 142.899 433.818 129.717 432.59 125.913C431.952 124.15 430.639 122.697 428.926 121.861C427.214 121.024 425.235 120.869 423.408 121.428C421.58 121.987 420.046 123.216 419.128 124.856C418.211 126.497 417.981 128.421 418.488 130.223H418.478Z" fill="black"/>
<path opacity="0.25" d="M391.851 151.442C392.395 155.374 401.299 165.877 401.299 165.877C401.299 165.877 407.046 153.467 406.502 149.52C406.394 148.563 406.091 147.638 405.611 146.797C405.131 145.957 404.484 145.219 403.708 144.626C402.931 144.033 402.041 143.598 401.09 143.346C400.138 143.094 399.145 143.03 398.168 143.158C397.191 143.287 396.25 143.604 395.401 144.092C394.551 144.581 393.811 145.23 393.222 146.002C392.634 146.773 392.209 147.652 391.974 148.586C391.738 149.521 391.697 150.491 391.851 151.442Z" fill="black"/>
<path d="M392.073 179.01C392.073 179.01 395.427 145.273 415.401 127.333C423.825 119.856 429.54 109.916 431.688 99.0024C432.665 93.8142 433.153 88.5493 433.143 83.2741" stroke="#9AB1F3" stroke-width="2" stroke-miterlimit="10"/>
<path d="M445.664 71.8907C444.153 75.5869 432.851 83.6083 432.851 83.6083C432.851 83.6083 430.424 70.195 431.95 66.4989C432.685 64.7241 434.112 63.3068 435.917 62.5588C437.722 61.8107 439.758 61.7933 441.577 62.5103C443.395 63.2272 444.847 64.6199 445.614 66.3818C446.38 68.1437 446.398 70.1307 445.664 71.9055V71.8907Z" fill="#587EEC"/>
<path d="M448.539 96.8201C445.2 99.1105 431.265 99.8625 431.265 99.8625C431.265 99.8625 436.694 87.3094 440.033 85.0189C440.825 84.4405 441.728 84.0231 442.688 83.7913C443.648 83.5595 444.646 83.5181 445.623 83.6696C446.6 83.821 447.536 84.1622 448.375 84.673C449.214 85.1837 449.94 85.8536 450.509 86.643C451.078 87.4324 451.48 88.3253 451.689 89.2687C451.898 90.2122 451.911 91.187 451.728 92.1355C451.544 93.084 451.167 93.9869 450.62 94.7907C450.072 95.5945 449.365 96.2829 448.539 96.8152V96.8201Z" fill="#587EEC"/>
<path d="M433.602 131.609C429.533 131.943 417.113 125.711 417.113 125.711C417.113 125.711 428.294 117.552 432.363 117.218C434.317 117.057 436.256 117.661 437.754 118.896C439.252 120.131 440.186 121.897 440.351 123.804C440.515 125.711 439.896 127.604 438.63 129.066C437.365 130.527 435.556 131.439 433.602 131.599V131.609Z" fill="#587EEC"/>
<path d="M416.222 155.442C412.268 156.425 398.952 152.361 398.952 152.361C398.952 152.361 408.557 142.476 412.51 141.474C414.408 140.993 416.424 141.268 418.114 142.239C419.804 143.209 421.03 144.794 421.522 146.647C422.015 148.499 421.733 150.466 420.739 152.116C419.745 153.765 418.12 154.962 416.222 155.442Z" fill="#587EEC"/>
<path d="M416.574 94.9129C418.226 98.555 429.779 106.218 429.779 106.218C429.779 106.218 431.744 92.7306 430.092 89.0886C429.269 87.3846 427.795 86.0623 425.987 85.4044C424.178 84.7464 422.177 84.805 420.412 85.5674C418.647 86.3299 417.257 87.7359 416.54 89.4849C415.823 91.234 415.835 93.1874 416.574 94.9277V94.9129Z" fill="#587EEC"/>
<path d="M396.611 123.037C399.305 126.03 412.671 129.953 412.671 129.953C412.671 129.953 410.415 116.51 407.721 113.517C407.085 112.789 406.307 112.193 405.433 111.762C404.558 111.33 403.605 111.073 402.628 111.004C401.651 110.936 400.67 111.057 399.741 111.362C398.813 111.667 397.955 112.148 397.219 112.779C396.483 113.41 395.883 114.177 395.453 115.036C395.023 115.896 394.773 116.829 394.716 117.784C394.66 118.738 394.798 119.694 395.123 120.596C395.448 121.498 395.954 122.328 396.611 123.037Z" fill="#587EEC"/>
<path d="M381.054 152.98C383.189 156.371 395.684 162.441 395.684 162.441C395.684 162.441 395.79 148.822 393.67 145.425C392.614 143.857 390.974 142.752 389.098 142.344C387.221 141.936 385.256 142.257 383.618 143.24C381.98 144.223 380.799 145.789 380.325 147.608C379.851 149.426 380.122 151.353 381.079 152.98H381.054Z" fill="#587EEC"/>
<path d="M366.388 46.8877C367.224 43.8944 368.231 40.8863 368.936 37.8537C368.09 40.8863 367.078 43.9042 366.388 46.8877Z" fill="url(#paint0_linear_4_6)"/>
<path d="M362.641 75.7196C362.57 75.6016 362.52 75.4837 362.465 75.3755C362.465 75.3264 362.414 75.287 362.394 75.2379C362.284 75.2884 362.172 75.3327 362.057 75.3706C361.835 75.4542 361.609 75.5328 361.377 75.5967C361.145 75.6606 361.05 75.695 360.873 75.7343C360.727 75.7835 360.577 75.8213 360.425 75.8474L360.465 75.9358C360.652 75.8965 360.833 75.8621 361.019 75.813L361.07 76.4224C361.281 76.4224 361.478 76.3929 361.669 76.3929C361.76 76.3881 361.85 76.3881 361.941 76.3929C362.334 76.3929 362.676 76.3929 362.948 76.3929C362.842 76.1718 362.732 75.9408 362.641 75.7196ZM464.877 234.541C462.51 231.43 457.786 198.037 457.786 198.037C457.786 198.037 448.494 174.292 451.027 164.815C453.561 155.339 444.107 131.093 444.107 131.093C444.107 131.093 437.863 128.444 437.525 124.512C437.525 124.512 412.027 116.648 410.833 110.749C409.866 105.913 394.052 102.443 388.371 101.347C386.639 94.5247 384.896 88.1597 383.612 84.6847C383.264 83.6034 382.937 82.6695 382.635 81.9323C380.464 76.5257 373.756 76.0341 368.891 76.4667C368.68 75.5452 368.289 74.6723 367.738 73.8961C367.657 73.6292 367.498 73.3915 367.279 73.2129C367.175 73.126 367.064 73.0472 366.947 72.977C366.859 72.8177 366.743 72.6746 366.605 72.5543C366.466 72.4328 366.314 72.3272 366.151 72.2397C366.034 72.1779 365.913 72.1237 365.789 72.0775C365.497 71.969 365.195 71.8884 364.887 71.8367C364.529 71.7647 364.165 71.7187 363.799 71.699C364.688 71.3195 365.481 70.7541 366.121 70.0426C366.557 69.5432 366.881 68.9606 367.073 68.3322C367.232 67.8095 367.304 67.2651 367.284 66.72C367.154 66.9446 367.002 67.1569 366.831 67.3541C367.043 65.1767 365.864 62.9649 365.189 60.7974C364.372 57.9755 364.22 55.0095 364.746 52.1222C365.421 47.7674 367.093 43.3635 368.226 38.9301C368.229 38.9056 368.229 38.8809 368.226 38.8564C368.82 36.6547 369.188 34.4006 369.324 32.1276C369.521 27.5418 368.317 22.9659 366.383 18.7881C364.666 15.087 362.132 11.4449 358.254 9.9409C355.374 8.80551 352.145 8.98737 349.043 8.8006C342.083 8.3779 335.445 5.98916 328.828 3.81669C322.21 1.64422 315.401 -0.331646 308.436 0.046816C301.471 0.425278 294.304 3.70364 291.126 9.71972C290.119 11.5973 289.54 13.6862 288.336 15.4507C286.08 18.7782 282.041 20.4444 278.672 22.7398C275.302 25.0351 272.336 28.2938 271.117 32.1817C270.452 34.2763 270.358 36.5042 270.845 38.645C270.955 39.1285 271.096 39.6046 271.268 40.0704C271.746 41.3691 272.492 42.5584 273.459 43.565C274.189 44.309 275.027 44.9434 275.947 45.4475C277.102 46.0726 278.339 46.5421 279.623 46.8434C279.578 46.9909 279.533 47.1481 279.482 47.3005C279.402 47.5512 279.331 47.792 279.256 48.0624C279.09 48.6669 278.933 49.2813 278.803 49.9006C278.797 49.9447 278.797 49.9892 278.803 50.0333C278.184 52.829 277.873 55.6812 277.876 58.5413C277.875 59.894 277.945 61.2458 278.087 62.5914C280.102 82.5368 296.973 98.27 317.818 99.2924C318.534 99.3268 319.254 99.3464 319.984 99.3464C320.316 99.3464 320.644 99.3464 320.991 99.3464C321.319 99.7691 321.641 100.202 321.948 100.624C322.255 101.047 322.537 101.48 322.804 101.902L322.074 101.165L321.344 100.511C321.146 100.776 320.925 101.025 320.684 101.253C320.208 101.09 319.722 100.955 319.229 100.85C317.138 100.398 313.956 100.231 309.765 101.465C305.913 102.59 301.204 104.905 295.694 109.304L268.846 125.033L254.321 133.654L249.089 146.138C249.089 146.138 245.155 160.972 240.779 177.968C240.608 178.017 240.441 178.067 240.275 178.126C239.921 178.086 239.564 178.066 239.207 178.067C236.668 178.061 234.226 179.016 232.392 180.73C230.559 182.445 229.478 184.787 229.377 187.263C220.674 197.584 220.18 207.906 222.225 212.644C222.41 213.088 222.643 213.512 222.92 213.907C224.26 215.795 226.763 220.661 229.301 225.846C229.236 226.274 229.195 226.633 229.175 226.903C229.171 226.991 229.171 227.08 229.175 227.168C229.175 227.168 230.686 249.439 225.65 255.823C224.547 257.214 224.713 259.043 225.65 261.068C229.024 268.352 242.365 278.079 242.365 278.079C242.365 278.079 258.365 277.995 267.28 277.047C267.254 277.922 267.234 278.792 267.214 279.642C267.013 288.233 267.013 295.434 267.013 295.434L266.68 304.443C266.68 304.443 263.658 323.43 262.148 328.665C261.196 331.948 262.294 362.348 263.251 384.697H420.895C422.749 371.475 420.135 331.304 420.135 331.304C420.135 331.304 417.652 320.919 417.561 311.865C417.556 311.855 417.554 311.844 417.554 311.833C417.554 311.822 417.556 311.811 417.561 311.801C417.561 311.01 417.561 310.238 417.592 309.481L418.735 309.442L420.79 309.373H420.976C420.976 309.373 421.026 309.186 421.142 308.882C421.414 308.123 421.785 307.401 422.245 306.734C423.121 305.471 424.491 304.232 426.551 304.148C427.689 304.104 429.452 303.205 431.441 301.878C431.455 301.881 431.468 301.881 431.482 301.878C436.835 298.344 443.911 291.821 445.628 290.75C447.99 289.275 459.302 279.445 459.302 279.445C459.302 279.445 460.989 277.361 462.787 274.85L462.852 274.761C465.088 271.615 467.466 267.855 466.881 266.671C465.874 264.548 467.556 259.47 467.556 259.47C472.809 250.087 467.244 237.652 464.877 234.541ZM367.491 83.3625C367.539 83.5093 367.57 83.6611 367.582 83.8147C367.456 83.6525 367.33 83.4805 367.204 83.3232L367.083 83.1659L366.997 83.048L367.189 82.7924C367.189 82.7924 367.189 82.7924 367.189 82.8268C367.322 82.9862 367.424 83.1677 367.491 83.3625ZM365.799 79.0078C365.25 79.1159 364.817 79.2142 364.535 79.2879C364.177 78.6686 363.835 78.0493 363.527 77.4202C364.335 77.8773 365.095 78.409 365.799 79.0078ZM364.852 79.7844C364.85 79.7746 364.85 79.7646 364.852 79.7549L364.892 79.7844C365.099 79.9171 365.3 80.0449 365.487 80.1776C365.653 80.2955 365.804 80.4086 365.955 80.5265C365.854 80.6986 365.743 80.8755 365.633 81.018C365.456 80.7477 365.29 80.4872 365.129 80.2169C365.028 80.1088 364.938 79.9613 364.852 79.7844ZM361.83 73.7191C362.803 73.6255 363.783 73.6255 364.756 73.7191C364.892 73.7191 365.013 73.7437 365.134 73.7634C365.407 73.8046 365.675 73.8721 365.935 73.9649C366.53 74.7775 366.896 75.7283 366.997 76.7223L366.725 76.7616L366.458 76.8107C365.955 76.8943 365.451 76.9778 365.058 77.0565L364.555 77.1597C363.885 77.3022 363.497 77.4104 363.482 77.4153C363.417 77.2826 363.351 77.1597 363.281 77.0319C363.17 76.8206 363.054 76.6043 362.953 76.3929C362.853 76.1816 362.722 75.9408 362.616 75.7196C362.545 75.6016 362.495 75.4837 362.44 75.3755C362.44 75.3264 362.389 75.287 362.369 75.2379C362.34 75.1858 362.314 75.1315 362.294 75.0757C361.986 74.4662 361.704 73.8568 361.432 73.2571C361.402 73.1981 361.377 73.1342 361.352 73.0753L361.734 73.0507V73.1785L361.83 73.7191ZM241.67 378.622C241.63 371.303 241.086 363.385 239.575 355.954C238.93 352.793 238.266 349.633 237.591 346.526C237.42 345.75 237.253 344.983 237.087 344.216L235.536 344.418H235.395C231.165 324.949 226.743 307.795 226.743 307.795C226.743 307.795 217.96 275.066 218.977 272.456C219.108 272.117 218.942 271.203 218.569 269.861C216.444 262.419 207.57 241.914 204.467 234.905C204.467 234.875 204.442 234.841 204.432 234.816C203.928 233.641 203.566 232.85 203.455 232.619L204.185 222.16L204.226 221.531L204.321 220.194L204.281 220.159L204.321 219.54C204.321 219.54 196.656 213.406 183.673 208.978C183.169 208.801 182.635 208.629 182.106 208.461C182.756 204.23 183.617 199.452 184.74 194.798C184.846 194.331 184.962 193.878 185.083 193.421C185.189 192.964 185.309 192.522 185.43 192.075C185.622 191.347 185.828 190.63 186.04 189.922C186.74 189.705 187.43 189.465 188.11 189.209L188.372 189.111C196.747 185.93 203.658 179.895 207.825 172.124C211.992 164.352 213.132 155.37 211.035 146.841C209.839 142.004 207.63 137.46 204.548 133.496C204.316 133.192 204.07 132.887 203.823 132.587C203.576 132.287 203.279 131.953 203.002 131.648C204.457 128.419 206.175 125.347 206.316 122.207C206.341 121.809 206.341 121.41 206.316 121.012V120.963C206.129 118.943 205.213 116.898 203.077 114.75C199.96 111.6 195.523 110.002 191.086 109.236C186.649 108.469 182.127 108.449 177.664 107.933C170.266 107.068 163.059 104.841 155.661 104.158C146.548 103.335 137.374 104.86 129.055 108.582C123.55 111.039 117.975 115.335 117.642 121.228C117.37 126.099 120.845 130.769 119.969 135.58C119.098 140.309 114.162 144.03 114.595 148.812C114.762 150.68 115.744 152.351 116.973 153.84C117.396 154.332 117.844 154.823 118.307 155.315C120.1 157.168 122.074 158.947 123.076 161.281C123.117 161.38 123.157 161.478 123.192 161.576C124.043 163.882 123.661 166.796 121.556 168.118C121.567 168.127 121.576 168.139 121.581 168.153C121.611 168.192 121.641 168.222 121.666 168.261C121.669 168.253 121.669 168.244 121.666 168.236C122.413 169.1 123.419 169.712 124.542 169.986L124.97 170.114C124.623 170.483 124.295 170.866 123.963 171.269L123.746 171.549C123.191 172.277 122.687 173.041 122.235 173.835C121.979 174.277 121.732 174.719 121.525 175.162C120.835 176.51 120.335 177.944 120.04 179.423C119.501 182.677 120.261 186.068 119.445 189.253C118.438 193.185 115.25 196.203 113.452 199.855C110.048 206.736 111.977 214.812 112.662 222.41C113.593 232.732 112.082 243.098 110.576 253.351C109.777 258.803 108.978 264.261 108.179 269.723C106.165 283.433 104.15 297.143 102.136 310.853C101.4 315.876 100.529 321.174 97.0995 325.052H97.1347C97.1347 325.052 97.1347 325.082 97.0995 325.092C98.1291 325.531 99.224 325.806 100.343 325.908C104.82 326.345 109.564 324.232 113.593 321.921C116.784 320.122 119.806 318.051 122.623 315.733C122.21 317.208 121.767 318.815 121.294 320.545C121.295 320.562 121.295 320.578 121.294 320.594C115.608 341.729 106.462 380.475 106.462 380.475C106.462 380.475 105.631 382.161 104.553 384.672H246.576C244.914 382.706 243.367 380.824 242.159 379.305L241.67 378.622ZM136.513 183.198C136.548 183.139 136.574 183.085 136.609 183.031C136.609 183.188 136.609 183.34 136.609 183.488C136.609 183.635 136.609 183.768 136.609 183.906C136.609 184.043 136.609 184.029 136.609 184.097C136.609 184.166 136.609 184.097 136.609 184.097C136.609 184.299 136.564 184.5 136.528 184.702C136.528 184.702 136.528 184.726 136.528 184.746L137.032 184.928L137.616 185.164C141.068 186.494 144.563 187.698 148.102 188.777C148.464 188.89 148.832 188.998 149.2 189.101L149.275 189.71C149.366 190.335 149.451 190.969 149.532 191.603C149.532 191.603 149.532 191.632 149.532 191.652C149.759 193.407 149.98 195.156 150.177 196.867C150.177 196.867 140.93 193.426 141.046 198.651C141.041 198.744 141.041 198.838 141.046 198.931C141.036 199.055 141.036 199.18 141.046 199.305C141.131 203.374 142.436 205.788 142.698 207.026C142.682 207.078 142.654 207.125 142.617 207.164C142.394 207.638 142.317 208.166 142.396 208.683C142.387 209.562 142.458 210.44 142.607 211.307C142.335 211.469 142.068 211.632 141.801 211.799C141.6 211.922 141.408 212.059 141.212 212.197C139.977 208.014 138.36 203.948 136.382 200.047C134.997 197.265 133.441 194.365 133.456 191.313C133.456 191.116 133.456 190.915 133.481 190.713C133.538 189.828 133.71 188.955 133.995 188.113C134.111 187.794 134.237 187.479 134.378 187.169C134.707 186.434 135.075 185.715 135.481 185.016C135.743 184.554 136.02 184.097 136.287 183.635C136.372 183.498 136.453 183.355 136.533 183.218L136.513 183.198ZM362.641 75.7196C362.57 75.6016 362.52 75.4837 362.465 75.3755C362.465 75.3264 362.414 75.287 362.394 75.2379C362.284 75.2884 362.172 75.3327 362.057 75.3706C361.835 75.4542 361.609 75.5328 361.377 75.5967C361.145 75.6606 361.05 75.695 360.873 75.7343L360.425 75.8474L360.465 75.9358C360.652 75.8965 360.833 75.8621 361.019 75.813L361.07 76.4224C361.281 76.4224 361.478 76.3929 361.669 76.3929H361.941C362.334 76.3929 362.676 76.3929 362.948 76.3929C362.842 76.1718 362.732 75.9408 362.641 75.7196Z" fill="url(#paint1_linear_4_6)"/>
<path d="M252.599 147.912L249.577 149.215C249.577 149.215 229.88 223.895 229.88 229.931C229.88 235.966 271.646 269.551 271.646 269.551L278.163 226.623C278.163 226.623 268.806 128.178 252.599 147.912Z" fill="#E8F5FF"/>
<path d="M344.213 124.158L326.763 115.271C325.785 111.205 324.051 107.348 321.646 103.893C319.092 100.295 315.698 96.761 311.468 94.9179C300.776 90.2387 356.693 65.678 356.693 65.678C357.574 68.6284 358.611 71.5323 359.8 74.3777C362.681 81.3178 367.461 90.2928 373.62 92.8486C384.09 97.1985 344.213 124.158 344.213 124.158Z" fill="#FFB0B1"/>
<path opacity="0.1" d="M359.8 74.3777C357.411 82.5785 352.443 89.8396 345.596 95.1356C338.75 100.432 330.372 103.495 321.646 103.893C319.092 100.295 315.698 96.761 311.468 94.9179C300.776 90.2387 356.693 65.678 356.693 65.678C357.574 68.6284 358.611 71.5323 359.8 74.3777Z" fill="black"/>
<path d="M361.372 61.977C361.374 70.0199 358.932 77.8828 354.355 84.5711C349.777 91.2594 343.271 96.4727 335.657 99.5518C328.044 102.631 319.666 103.437 311.583 101.869C303.5 100.301 296.075 96.4282 290.247 90.7413C284.419 85.0545 280.451 77.8086 278.843 69.9203C277.235 62.0319 278.06 53.8554 281.214 46.4248C284.368 38.9942 289.709 32.6433 296.562 28.1754C303.414 23.7075 311.471 21.3233 319.712 21.3243C325.19 21.2995 330.618 22.3341 335.683 24.3683C340.749 26.4025 345.351 29.3959 349.225 33.1757C353.098 36.9556 356.166 41.4469 358.251 46.3903C360.336 51.3337 361.397 56.6312 361.372 61.977Z" fill="#FFB0B1"/>
<path d="M367.385 118.938L356.023 144.811L346.001 161.984H313.92L304.563 138.505L308.355 114.156H332.857L348.675 113.286L354.019 111.546L357.464 113.453L367.385 118.938Z" fill="#575A89"/>
<path opacity="0.1" d="M363.472 84.4488C363.472 84.4488 370.558 85.9233 364.212 91.0006C357.867 96.0779 335.974 112.224 335.974 112.224C335.974 112.224 343.664 118.908 342.073 126.738L367.551 112.878L372.084 90.7008C372.084 90.7008 372.593 84.0359 363.472 84.4488Z" fill="black"/>
<path opacity="0.1" d="M340.985 112.224L324.778 114.834C324.778 114.834 328.122 126.9 326.45 130.326C326.4 130.433 326.358 130.543 326.324 130.656L319.712 148.099L324.668 161.798L341.821 138.967L335.974 130.326C335.974 130.326 342.153 122.334 345.83 119.562C349.506 116.79 340.985 112.224 340.985 112.224Z" fill="black"/>
<path d="M340.985 111.551L324.778 114.156C324.778 114.156 328.122 126.222 326.45 129.648C326.4 129.754 326.358 129.865 326.324 129.977L319.712 147.421L324.668 161.119L341.821 138.274L335.974 129.633C335.974 129.633 342.153 121.641 345.83 118.869C349.506 116.097 340.985 111.551 340.985 111.551Z" fill="#DCE6F2"/>
<path d="M364.152 83.1463C364.152 83.1463 371.238 84.6208 364.887 89.6981C358.537 94.7754 335.974 112.224 335.974 112.224C335.974 112.224 344.329 117.606 342.743 125.431L368.221 111.575L372.754 89.3983C372.754 89.3983 373.257 82.7334 364.152 83.1463Z" fill="#575A89"/>
<path opacity="0.1" d="M322.759 105.431C322.759 105.431 324.305 108.253 331.129 113.34C331.129 113.34 319.768 119.238 324.114 127.53L306.734 123.106L304.059 114.952L322.759 105.431Z" fill="black"/>
<path d="M322.089 104.783C322.089 104.783 323.635 107.604 330.459 112.691C330.459 112.691 319.097 118.56 323.444 126.876L306.069 122.452L303.394 114.303L322.089 104.783Z" fill="#575A89"/>
<path opacity="0.1" d="M367.385 118.938L356.023 144.811L346.021 161.984H313.92L304.563 138.505L308.35 114.156H315.164C315.053 119.837 317.179 126.512 317.043 128.994C316.811 133.074 323.278 155.084 323.278 155.084C323.278 155.084 336.81 133.723 342.153 131.82C345.513 130.626 352.629 120.688 357.459 113.453L367.385 118.938Z" fill="black"/>
<path d="M412.142 255.091L410.989 256.507C410.989 256.507 419.344 297.435 417.033 306.729C416.64 308.404 416.415 310.113 416.363 311.831V311.905C415.955 321.361 418.881 333.634 418.881 333.634C418.881 333.634 421.218 369.809 419.888 384.687H263.452C262.535 362.687 261.548 334.185 262.445 331.024C263.956 325.809 266.977 306.891 266.977 306.891L267.31 297.926C267.31 297.926 267.31 289.261 267.582 279.607C267.698 275.267 267.869 270.711 268.116 266.671C268.433 261.589 268.876 257.308 269.485 255.204C269.861 253.61 270.077 251.983 270.13 250.348C270.13 250.196 270.13 250.038 270.16 249.881C270.16 249.389 270.211 248.859 270.231 248.313C270.231 248.161 270.231 248.008 270.231 247.822C270.326 244.656 270.291 240.901 270.185 237.008C270.185 236.797 270.185 236.581 270.185 236.365C270.1 233.445 269.974 230.466 269.833 227.635C269.395 218.788 268.826 211.307 268.826 211.307L249.612 149.181L254.79 136.736L269.158 128.144L295.724 112.489C308.683 102.094 317.214 103.342 320.467 104.483C320.783 104.588 321.093 104.711 321.394 104.851C321.495 104.901 321.575 104.94 321.651 104.984C321.754 105.032 321.854 105.088 321.948 105.151C321.057 105.569 320.283 106.192 319.692 106.965C319.026 107.845 318.551 108.848 318.297 109.914C318.127 110.574 318.007 111.246 317.939 111.924C317.874 112.637 317.849 113.374 317.849 114.116C317.884 115.744 318.027 117.368 318.277 118.977C318.277 119.007 318.277 119.046 318.277 119.085C318.443 120.236 318.649 121.361 318.851 122.418C318.849 122.436 318.849 122.454 318.851 122.472C319.082 123.706 319.314 124.846 319.47 125.829C319.5 126.006 319.526 126.168 319.551 126.321C319.662 126.97 319.714 127.628 319.707 128.287C319.764 129.877 319.983 131.457 320.362 133.005C320.493 133.654 320.644 134.347 320.81 135.069C321.037 136.052 321.283 137.124 321.55 138.215C321.696 138.815 321.852 139.434 322.014 140.048C322.074 140.294 322.139 140.54 322.2 140.791L322.301 141.179C323.373 145.342 324.537 149.485 325.252 151.992C325.675 153.467 325.942 154.376 325.942 154.376C325.942 154.376 333.526 142.408 339.58 135.595C339.671 135.497 339.751 135.404 339.837 135.315C340.436 134.642 341.025 134.027 341.589 133.487C342.823 132.287 343.931 131.432 344.823 131.118C345.013 131.05 345.196 130.966 345.372 130.867C347.85 129.496 351.848 124.517 355.59 119.302C355.958 118.81 356.315 118.275 356.678 117.768C357.509 116.598 358.315 115.424 359.075 114.298C359.66 113.438 360.219 112.602 360.747 111.806C363.266 107.982 365.038 105.132 365.038 105.132L368.533 104.979L369.143 104.95H369.551L385.42 104.232C385.42 104.232 386.105 104.345 387.233 104.566C387.293 104.566 387.354 104.566 387.419 104.606C393.05 105.697 408.693 109.152 409.649 113.944C410.818 119.813 436.049 127.643 436.049 127.643C436.382 131.575 442.561 134.165 442.561 134.165C442.561 134.165 451.919 158.298 449.416 167.755C446.943 177.093 455.852 200.194 456.089 200.843L454.381 202.947L412.142 255.091Z" fill="#E8F5FF"/>
<path opacity="0.1" d="M363.467 82.7335C363.467 82.7335 378.913 78.4574 382.423 87.2603C385.934 96.0632 393.785 131.614 393.785 131.614C393.785 131.614 373.398 135.364 368.055 131.614C364.921 129.388 361.041 128.398 357.192 128.842L345.664 136.505L342.259 135.522C342.259 135.522 360.702 108.764 364.711 99.6709C368.72 90.578 370.074 86.5132 363.467 82.7335Z" fill="black"/>
<path d="M362.797 80.7674C362.797 80.7674 378.253 76.4913 381.779 85.2942C385.304 94.0971 393.141 129.648 393.141 129.648C393.141 129.648 372.759 133.398 367.41 129.648C364.278 127.422 360.4 126.432 356.552 126.876L345.014 134.538L341.61 133.555C341.61 133.555 360.052 106.798 364.061 97.7048C368.07 88.6119 369.405 84.5569 362.797 80.7674Z" fill="#E8F5FF"/>
<path opacity="0.1" d="M259.116 222.592C259.116 222.592 270.644 225.364 272.82 231.725C274.995 238.085 264.298 238.247 264.298 238.247C264.298 238.247 257.781 226.996 259.116 222.592Z" fill="black"/>
<path opacity="0.1" d="M302.055 269.551C302.055 269.551 273.822 325.972 280.339 331.354C286.856 336.736 302.055 269.551 302.055 269.551Z" fill="black"/>
<path opacity="0.1" d="M340.985 227.974C340.985 227.974 363.542 282.778 359.03 291.242C354.517 299.705 368.72 291.242 368.72 291.242L340.985 227.974Z" fill="black"/>
<path d="M372.396 282.109C372.396 282.109 296.208 285.697 318.433 308.852C340.658 332.007 386.266 309.835 386.266 309.835L372.396 282.109Z" fill="#FFB0B1"/>
<path opacity="0.1" d="M361.372 61.9769C361.379 67.3098 360.306 72.5915 358.214 77.5184C357.514 77.597 356.814 77.6462 356.139 77.6757C355.132 75.518 355.671 73.026 355.691 70.652C355.711 68.278 354.815 65.4863 352.473 64.8473C347.804 63.5645 344.581 72.0823 339.978 70.5439C336.453 69.3741 337.374 64.1543 335.345 61.1413C333.738 58.7575 330.52 58.0841 328.017 56.5899C322.694 53.4 322.855 48.2982 320.382 43.4716C317.793 38.4139 312.324 39.9081 307.575 42.8916C303.969 45.1624 300.856 48.2048 296.999 50.0135C293.66 51.5864 289.908 52.1565 286.206 52.2401C283.927 52.3263 281.647 52.0912 279.437 51.5421C282.037 42.0039 288.102 33.714 296.503 28.2184C304.904 22.7228 315.065 20.3968 325.094 21.674C335.122 22.9512 344.332 27.7445 351.006 35.16C357.68 42.5755 361.362 52.107 361.367 61.9769H361.372Z" fill="black"/>
<path d="M307.59 41.5892C303.979 43.86 300.872 46.8975 297.014 48.7161C293.675 50.284 289.923 50.8542 286.221 50.9377C281.688 51.036 276.808 50.2594 273.711 47.0646C270.866 44.1156 270.186 39.5789 271.389 35.7108C272.593 31.8426 275.479 28.633 278.868 26.3082C282.258 23.9834 286.191 22.3761 288.437 19.0486C289.626 17.289 290.2 15.2148 291.187 13.3422C294.345 7.35069 301.446 4.10673 308.31 3.70369C315.174 3.30065 321.978 5.29618 328.516 7.45882C335.053 9.62146 341.64 12.0004 348.54 12.4476C351.612 12.6344 354.805 12.4476 357.655 13.583C361.488 15.1018 364.001 18.734 365.713 22.4302C367.632 26.5982 368.826 31.1496 368.624 35.7009C368.201 45.4181 361.624 54.9534 364.515 64.2625C365.28 66.7447 366.715 69.2907 365.95 71.7728C364.832 75.3952 360.042 76.221 356.17 76.393C355.162 74.2353 355.701 71.7384 355.721 69.3693C355.741 67.0002 354.845 64.2036 352.508 63.5646C347.835 62.2916 344.611 70.7947 340.018 69.2612C336.518 68.0865 337.425 62.8716 335.39 59.8586C333.783 57.4699 330.56 56.8014 328.062 55.3072C322.739 52.1173 322.9 47.0155 320.427 42.1889C317.819 37.1067 312.344 38.6008 307.59 41.5892Z" fill="#575A89"/>
<path d="M233.713 228.623L229.87 229.931C229.87 229.931 231.381 252.108 226.345 258.468C221.309 264.828 242.884 280.64 242.884 280.64C242.884 280.64 272.457 280.477 273.293 278.182C274.129 275.887 271.782 237.092 271.782 237.092C271.782 237.092 255.908 231.056 257.242 221.437C257.242 221.437 252.397 244.101 245.216 243.123C238.034 242.145 229.88 236.291 233.713 228.623Z" fill="#E8F5FF"/>
<path opacity="0.1" d="M246.53 249.984C252.129 249.984 256.668 245.933 256.668 240.935C256.668 235.938 252.129 231.887 246.53 231.887C240.931 231.887 236.392 235.938 236.392 240.935C236.392 245.933 240.931 249.984 246.53 249.984Z" fill="black"/>
<path d="M257.615 229.277C257.615 229.277 255.601 169.273 238.064 182.642C220.528 196.012 220.357 212 223.696 216.724C227.035 221.447 237.742 245.094 237.742 245.094C239.417 246.041 241.298 246.588 243.231 246.689C245.164 246.79 247.094 246.442 248.863 245.675C250.632 244.908 252.189 243.742 253.408 242.274C254.626 240.806 255.471 239.078 255.873 237.23L257.615 229.277Z" fill="#FFB0B1"/>
<path opacity="0.1" d="M367.007 77.2875C366.926 77.0238 366.768 76.7885 366.554 76.6092C365.688 75.8375 363.824 75.5672 361.014 75.8031L361.13 77.1007C364.877 76.7861 365.617 77.5136 365.713 77.6364V77.7593L365.829 77.9215C366.296 78.5343 366.627 79.2355 366.8 79.9804C366.974 80.7252 366.986 81.4971 366.836 82.2468C366.015 86.2526 360.974 89.4425 360.924 89.4769L360.803 89.5457L360.727 89.6588C358.552 92.8093 346.248 101.701 343.03 104.001L342.748 103.686C341.307 104.905 328.646 115.723 327.961 119.867C327.518 122.467 324.517 123.475 323.429 123.755C322.28 122.904 318.554 120.009 316.615 116.765C314.797 113.713 322.114 107.756 322.759 105.431L321.752 104.424C321.646 104.797 312.248 113.369 314.862 117.749C316.957 121.263 320.785 124.271 322.124 125.264C321.696 129.058 319.032 151.338 314.938 156.617C309.851 163.179 305.575 196.247 306.049 207.793C306.467 218.051 303.722 237.426 294.556 245.747C292.969 247.251 291.055 248.386 288.956 249.067C286.857 249.747 284.627 249.957 282.434 249.679H282.323H282.212C282.081 249.679 268.785 251.007 257.615 241.815C248.474 234.31 243.297 222.062 242.219 205.399H241.998L241.907 200.548C244.385 200.171 246.617 198.87 248.134 196.92C249.651 194.971 250.334 192.523 250.04 190.092C249.746 187.66 248.498 185.435 246.558 183.883C244.619 182.331 242.138 181.573 239.637 181.768C237.137 181.964 234.812 183.098 233.15 184.932C231.488 186.765 230.619 189.156 230.726 191.602C230.833 194.048 231.906 196.358 233.722 198.048C235.537 199.737 237.953 200.674 240.461 200.661H240.572L240.663 205.483L240.22 205.512C241.328 222.715 246.767 235.44 256.336 243.3C263.609 249.181 272.899 252.149 282.328 251.601C282.997 251.673 283.669 251.709 284.342 251.709C288.664 251.731 292.823 250.099 295.926 247.163C305.58 238.389 308.516 218.301 308.058 207.695C307.554 195.461 312.042 163.582 316.544 157.777C320.956 152.08 323.63 129.884 324.098 125.583C325.695 125.146 329.306 123.765 329.92 120.177C330.364 117.581 338.819 109.585 344.022 105.156L343.866 104.979C346.666 102.984 355.374 96.6922 359.69 92.652C361.029 91.3987 362.359 90.1453 363.749 88.951C365.421 87.5059 367.546 85.2106 368.105 82.4975C368.296 81.6019 368.297 80.6777 368.108 79.7817C367.919 78.8858 367.545 78.037 367.007 77.2875Z" fill="black"/>
<path d="M321.953 124.954C321.742 124.811 316.726 121.307 314.213 117.09C311.604 112.71 321.001 104.143 321.102 103.77L322.109 104.778C321.47 107.097 314.152 113.059 315.97 116.107C318.262 119.955 323.086 123.322 323.137 123.357L321.953 124.954Z" fill="#353146"/>
<path d="M342.375 104.955L341.59 103.898C341.751 103.785 357.57 92.6177 360.063 89.0051L360.143 88.897L360.259 88.8233C360.309 88.7889 365.351 85.6039 366.172 81.5932C366.323 80.8444 366.311 80.0729 366.138 79.3286C365.964 78.5844 365.633 77.884 365.164 77.2728L365.048 77.1057V76.9877C364.948 76.86 364.207 76.1374 360.46 76.452L360.345 75.1495C363.16 74.9136 365.018 75.1839 365.884 75.9556C366.1 76.1367 366.259 76.3735 366.343 76.6388C366.887 77.3861 367.269 78.2343 367.465 79.1312C367.661 80.0281 367.666 80.9547 367.481 81.8537C366.922 84.5717 364.802 86.8671 363.125 88.3072C361.74 89.5016 360.405 90.7647 359.07 92.0083C354.009 96.7415 342.929 104.566 342.375 104.955Z" fill="#E8F5FF"/>
<path d="M241.257 198.837L239.923 198.861L240.071 206.778L241.406 206.754L241.257 198.837Z" fill="#E8F5FF"/>
<path d="M239.812 200.037C245.194 200.037 249.557 195.779 249.557 190.526C249.557 185.274 245.194 181.016 239.812 181.016C234.43 181.016 230.067 185.274 230.067 190.526C230.067 195.779 234.43 200.037 239.812 200.037Z" fill="#587EEC"/>
<path d="M239.812 198.425C244.282 198.425 247.905 194.889 247.905 190.526C247.905 186.164 244.282 182.628 239.812 182.628C235.342 182.628 231.719 186.164 231.719 190.526C231.719 194.889 235.342 198.425 239.812 198.425Z" fill="#E8F5FF"/>
<path d="M283.708 251.075C283.035 251.076 282.362 251.042 281.693 250.972C272.265 251.514 262.977 248.547 255.701 242.67C246.132 234.806 240.703 222.096 239.585 204.878L241.6 204.755C242.677 221.418 247.855 233.671 257.001 241.171C268.171 250.338 281.462 249.036 281.593 249.036H281.703H281.814C284.008 249.312 286.238 249.101 288.338 248.421C290.437 247.74 292.353 246.606 293.941 245.103C303.102 236.782 305.847 217.407 305.429 207.149C304.926 195.594 309.201 162.525 314.293 155.968C318.75 150.223 321.515 124.325 321.545 124.064L321.621 123.327L322.366 123.199C322.411 123.199 326.763 122.393 327.307 119.218C328.012 115.08 340.653 104.261 342.088 103.038L343.402 104.512C338.18 108.936 329.724 116.938 329.301 119.538C328.687 123.135 325.076 124.512 323.484 124.944C322.98 129.25 320.326 151.441 315.93 157.138C311.427 162.943 306.94 194.822 307.444 207.056C307.877 217.662 304.971 237.755 295.316 246.524C292.208 249.467 288.039 251.102 283.708 251.075Z" fill="#353146"/>
<g opacity="0.1">
<path opacity="0.1" d="M365.663 50.3577C366.489 47.3791 367.486 44.3809 368.181 41.363C367.35 44.3957 366.348 47.3791 365.663 50.3577Z" fill="black"/>
<path opacity="0.1" d="M357.237 73.7634C356.23 71.6057 356.769 69.1088 356.789 66.7397C356.809 64.3706 355.913 61.5985 353.576 60.935C348.902 59.662 345.679 68.17 341.086 66.6316C337.561 65.4569 338.492 60.242 336.458 57.229C334.851 54.8403 331.633 54.1718 329.135 52.6776C323.806 49.4877 323.968 44.3859 321.5 39.5592C318.906 34.4967 313.442 35.9909 308.688 38.9793C305.077 41.25 301.969 44.2925 298.112 46.1061C294.772 47.6741 291.02 48.2442 287.319 48.3278C282.811 48.431 277.906 47.6495 274.809 44.4547C272.422 41.9971 271.56 38.3944 272.054 35.0177C271.968 35.2487 271.893 35.4797 271.817 35.7107C270.609 39.5789 271.314 44.1254 274.139 47.0646C277.236 50.2594 282.142 51.036 286.649 50.9377C290.356 50.8541 294.103 50.284 297.447 48.7161C301.315 46.8975 304.422 43.86 308.023 41.5892C312.777 38.6008 318.246 37.1066 320.835 42.1692C323.303 46.9958 323.147 52.0977 328.47 55.2875C330.988 56.7621 334.186 57.4502 335.798 59.8389C337.812 62.8617 336.921 68.0668 340.426 69.2415C345.014 70.775 348.237 62.2719 352.911 63.5449C355.248 64.1839 356.149 66.9855 356.124 69.3496C356.099 71.7138 355.575 74.2156 356.572 76.3733C360.445 76.2013 365.235 75.3903 366.358 71.7531C366.512 71.2311 366.584 70.689 366.569 70.1459C364.933 72.9032 360.722 73.611 357.237 73.7634Z" fill="black"/>
</g>
<path opacity="0.1" d="M448.257 194.871L454.105 200.907C454.105 200.907 458.783 234.167 461.12 237.279C463.457 240.39 468.977 252.766 463.794 262.061C463.794 262.061 462.122 267.118 463.124 269.237C464.127 271.355 455.61 281.957 455.61 281.957C455.61 281.957 444.415 291.738 442.073 293.208C439.731 294.677 427.372 306.414 423.197 306.577C419.022 306.739 417.657 311.796 417.657 311.796L394.098 312.612C394.098 312.612 381.084 311.949 378.254 313.743C378.254 313.743 379.764 294.338 365.225 281.618L383.768 275.095C383.768 275.095 390.789 272.146 392.959 269.065C394.325 267.175 396.262 265.751 398.499 264.99C398.499 264.99 403.677 261.402 403.843 259.446C404.009 257.49 410.173 255.091 410.173 255.091L406.683 226.018L408.521 177.752C408.521 177.752 414.369 137.311 426.733 139.596C439.097 141.882 448.257 194.871 448.257 194.871Z" fill="black"/>
<path d="M450.272 194.871L456.119 200.907C456.119 200.907 460.798 234.167 463.134 237.279C465.471 240.39 470.991 252.766 465.809 262.061C465.809 262.061 464.142 267.118 465.144 269.237C466.146 271.355 457.625 281.957 457.625 281.957C457.625 281.957 446.429 291.738 444.087 293.208C441.745 294.677 429.386 306.414 425.211 306.577C421.036 306.739 419.672 311.796 419.672 311.796L396.112 312.612C396.112 312.612 383.088 311.949 380.268 313.743C380.268 313.743 381.779 294.338 367.239 281.618L385.783 275.095C385.783 275.095 392.803 272.146 394.974 269.065C396.339 267.175 398.276 265.751 400.514 264.99C400.514 264.99 405.691 261.402 405.857 259.446C406.023 257.49 412.188 255.091 412.188 255.091L408.698 226.018L410.536 177.752C410.536 177.752 416.383 137.311 428.747 139.596C441.111 141.882 450.272 194.871 450.272 194.871Z" fill="#E8F5FF"/>
<path opacity="0.1" d="M428.535 243.629C428.535 243.629 445.744 239.205 450.257 244.612C454.769 250.019 428.535 243.629 428.535 243.629Z" fill="black"/>
<path opacity="0.1" d="M424.527 251.046C430.374 255.042 448.419 255.204 448.419 255.204L424.527 251.046Z" fill="black"/>
<path opacity="0.1" d="M433.38 271.021C433.884 271.183 445.785 283.579 450.781 279.829C455.776 276.078 433.38 271.021 433.38 271.021Z" fill="black"/>
<path opacity="0.1" d="M273.107 166.988C273.107 166.988 276.602 190.472 274.879 200.037C273.157 209.602 279.442 221.452 279.442 221.452L273.107 166.988Z" fill="black"/>
<path d="M195.73 176.538C191.701 179.62 188.759 186.914 186.629 194.93C182.912 208.914 181.699 225.129 181.699 225.129C181.699 225.129 149.618 217.953 151.954 214.694C153.425 212.644 151.451 197.201 149.804 186.004C148.822 179.389 147.946 174.252 147.946 174.252C147.946 174.252 206.759 168.055 195.73 176.538Z" fill="#FFB0B1"/>
<path opacity="0.1" d="M195.73 175.884C191.701 178.971 188.759 186.26 186.629 194.277C180.237 196.171 173.439 196.342 166.956 194.771C160.473 193.2 154.546 189.947 149.804 185.356C148.822 178.735 147.946 173.599 147.946 173.599C147.946 173.599 206.759 167.406 195.73 175.884Z" fill="black"/>
<path d="M212.974 158.318C212.977 166.867 209.881 175.141 204.234 181.677C198.588 188.212 190.754 192.587 182.119 194.028C173.485 195.469 164.607 193.882 157.056 189.548C149.505 185.214 143.769 178.414 140.862 170.349C137.955 162.285 138.065 153.476 141.173 145.484C144.281 137.491 150.185 130.829 157.842 126.676C165.499 122.524 174.415 121.149 183.01 122.794C191.606 124.44 199.328 129.001 204.81 135.669C210.092 142.092 212.972 150.082 212.974 158.318Z" fill="#FFB0B1"/>
<path opacity="0.1" d="M242.224 384.687H231.648L230.757 366.457L229.825 347.588C229.825 347.588 232.227 347.239 236.055 346.718L237.601 346.517H237.727C238.563 350.345 239.389 354.278 240.184 358.205C241.509 365.177 242.198 372.249 242.244 379.34C242.244 379.831 242.244 380.323 242.244 380.785C242.274 382.097 242.244 383.409 242.224 384.687Z" fill="black"/>
<path d="M240.195 384.687H107.56C108.134 383.414 108.517 382.643 108.517 382.643C108.517 382.643 119.128 337.335 124.522 318.166C124.524 318.15 124.524 318.134 124.522 318.117C125.196 315.513 126.009 312.946 126.959 310.425C127.021 310.254 127.1 310.089 127.196 309.934C129.865 305.697 133.209 301.131 128.531 294.608C123.852 288.086 125.509 259.387 125.509 259.387C125.509 259.387 131.19 234.924 137.203 221.88C138.116 219.859 139.411 218.025 141.021 216.473C141.544 215.973 142.103 215.51 142.693 215.087C143.141 214.758 143.609 214.455 144.093 214.178L144.188 214.119C146.715 212.721 149.52 211.871 152.413 211.627C154.468 211.417 156.542 211.473 158.582 211.794C168.332 213.19 176.138 215.525 182.343 218.184C199.159 225.394 204.251 235.057 204.352 235.259L204.392 235.342C205.067 236.881 214.938 259.372 218.493 269.866C219.415 272.599 219.919 274.52 219.717 275.046C218.71 277.651 227.403 310.263 227.403 310.263C227.403 310.263 231.432 325.991 235.461 344.428C235.637 345.194 235.803 345.961 235.964 346.738C236.684 350.085 237.399 353.496 238.089 356.902C239.426 363.922 240.116 371.045 240.149 378.185C240.223 380.409 240.238 382.577 240.195 384.687Z" fill="#EB5569"/>
<path opacity="0.1" d="M151.622 200.411C151.622 200.411 142.471 196.97 142.582 202.19C142.693 207.41 144.813 209.907 144.143 210.668C143.473 211.43 144.476 215.996 144.476 215.996C144.476 215.996 156.84 215.996 162.52 218.493C168.201 220.99 189.142 225.994 191.816 227.517C194.491 229.041 204.407 235.873 204.407 235.873L205.298 222.936C205.298 222.936 195.05 214.674 178.234 210.437C161.418 206.201 151.622 200.411 151.622 200.411Z" fill="black"/>
<path d="M151.622 199.757C151.622 199.757 142.471 196.316 142.582 201.536C142.693 206.756 144.813 209.253 144.143 210.015C143.473 210.776 144.476 215.343 144.476 215.343C144.476 215.343 156.84 215.343 162.52 217.844C168.201 220.346 189.142 225.345 191.816 226.864C194.491 228.382 204.407 235.219 204.407 235.219L205.308 222.322C205.308 222.322 195.06 214.06 178.244 209.823C161.428 205.586 151.622 199.757 151.622 199.757Z" fill="#EB5569"/>
<path opacity="0.1" d="M179.246 230.889C179.246 230.889 196.732 249.365 195.84 254.481C194.949 259.598 179.246 230.889 179.246 230.889Z" fill="black"/>
<path opacity="0.1" d="M150.841 297.631C150.841 297.631 138.024 309.157 134.247 309.811C130.47 310.464 137.143 312.637 141.484 310.902C145.825 309.167 155.082 304.601 155.082 304.601L150.841 297.631Z" fill="black"/>
<path d="M245.402 384.687H215.512C211.332 381.148 207.378 377.87 204.86 375.899C200.831 372.744 197.925 368.099 196.072 364.363C195.654 363.513 195.291 362.717 194.984 361.994C194.434 360.75 193.95 359.478 193.534 358.185L215.668 345.357C216.891 346.372 218.041 347.469 219.108 348.64L219.375 348.94C220.603 350.355 221.686 351.963 221.782 353.28C221.893 354.813 226.264 360.746 230.731 366.442C235.264 372.237 239.907 377.777 240.215 378.15C240.215 378.15 240.98 379.168 242.229 380.731C243.11 381.861 244.198 383.218 245.402 384.687Z" fill="#FFB0B1"/>
<path opacity="0.1" d="M204.81 135.669C203.747 138.009 202.795 140.437 202.654 143.042C202.257 150.562 202.901 167.376 194.37 171.151C190.144 173.009 185.622 168.929 180.988 168.831C177.654 168.762 174.597 170.827 172.563 173.407C170.528 175.988 169.264 179.05 167.788 181.969C166.445 184.619 164.898 187.166 163.16 189.588C162.641 190.329 162.068 191.033 161.448 191.696C156.246 189.554 151.613 186.281 147.904 182.127C144.194 177.972 141.505 173.047 140.041 167.725C138.577 162.402 138.378 156.824 139.458 151.416C140.538 146.007 142.868 140.91 146.272 136.514C149.676 132.117 154.063 128.537 159.1 126.046C164.136 123.555 169.689 122.218 175.334 122.139C180.98 122.059 186.57 123.238 191.678 125.587C196.786 127.935 201.277 131.39 204.81 135.689V135.669Z" fill="black"/>
<path d="M201.985 141.714C201.582 149.235 202.231 166.049 193.695 169.819C189.469 171.677 184.947 167.602 180.314 167.504C176.98 167.43 173.928 169.5 171.888 172.075C169.848 174.651 168.594 177.718 167.114 180.642C165.77 183.292 164.223 185.839 162.485 188.26C161.448 189.696 160.299 191.136 158.703 191.942C155.923 193.357 152.554 192.561 149.572 191.652C145.704 190.462 141.894 189.122 138.14 187.631C138.226 187.078 138.27 186.52 138.271 185.96C138.16 186.167 138.039 186.358 137.918 186.565L137.682 186.968C137.254 187.705 136.836 188.442 136.453 189.199C136.307 189.489 136.166 189.789 136.04 190.089C135.533 191.205 135.215 192.393 135.098 193.608C134.841 196.886 136.498 199.998 137.969 202.947C143.624 214.355 147.12 227.694 142.864 239.662C141.021 244.868 137.828 249.493 135.496 254.521C131.42 263.426 130.22 273.332 132.056 282.92C133.22 288.877 135.551 294.775 134.977 300.816C133.97 311.211 124.784 318.948 115.583 324.266C110.612 327.127 104.528 329.673 99.25 327.412C102.614 323.578 103.48 318.274 104.206 313.271C106.19 299.623 108.179 285.969 110.174 272.309C110.969 266.872 111.763 261.436 112.556 256C114.036 245.787 115.537 235.46 114.611 225.183C113.936 217.608 112.032 209.567 115.396 202.711C117.174 199.079 120.342 196.071 121.329 192.158C122.14 188.978 121.384 185.596 121.918 182.357C122.21 180.884 122.705 179.455 123.389 178.111C124.259 176.286 125.396 174.594 126.763 173.088C125.413 172.704 124.154 172.178 123.389 171.077C125.554 169.701 125.882 166.6 124.9 164.27C123.918 161.94 121.953 160.166 120.186 158.327C118.418 156.489 116.716 154.346 116.494 151.84C116.066 147.067 120.951 143.371 121.812 138.662C122.684 133.87 119.239 129.21 119.516 124.359C119.838 118.496 125.358 114.234 130.807 111.762C139.03 108.047 148.114 106.521 157.137 107.338C164.48 108.017 171.586 110.233 178.908 111.093C183.325 111.585 187.802 111.634 192.189 112.391C196.576 113.148 200.972 114.745 204.059 117.886C212.198 126.168 202.448 132.985 201.985 141.714Z" fill="#575A89"/>
<path opacity="0.1" d="M195.175 364.368C192.607 363.282 187.933 363.931 179.911 361.547C171.888 359.163 170.342 348.389 170.342 348.389V348.355C170.246 348.109 169.501 346.507 164.454 340.894C158.879 334.696 146.827 303.392 146.827 303.392C146.827 303.392 136.14 292.19 136.478 288.061C136.815 283.933 134.579 272.948 134.801 260.66C135.022 248.372 158.859 240.223 158.859 240.223C204.754 232.285 193.947 283.923 192.723 287.835C191.499 291.748 197.85 302.315 197.85 302.315C196.953 306.916 201.526 314.038 201.526 314.038C201.526 314.038 202.634 320.339 202.861 322.732C202.873 322.843 202.899 322.952 202.936 323.057C203.672 325.313 209.665 327.358 212.102 328.601C214.666 329.909 222.91 341.321 222.91 341.321C224.688 349.702 197.734 365.469 195.175 364.368Z" fill="black"/>
<path d="M196.51 362.402C193.947 361.311 189.268 361.965 181.25 359.576C173.233 357.187 171.681 346.423 171.681 346.423V346.389C171.591 346.138 170.84 344.541 165.794 338.928C160.219 332.73 148.167 301.421 148.167 301.421C148.167 301.421 137.48 290.224 137.813 286.095C138.145 281.967 135.919 270.981 136.141 258.703C136.362 246.426 160.184 238.281 160.184 238.281C206.079 230.343 195.271 281.981 194.047 285.894C192.824 289.806 199.174 300.374 199.174 300.374C198.278 304.974 202.851 312.096 202.851 312.096C202.851 312.096 203.959 318.397 204.19 320.791C204.199 320.902 204.223 321.011 204.261 321.115C204.996 323.371 210.989 325.416 213.432 326.66C215.99 327.962 224.24 339.38 224.24 339.38C226.028 347.745 199.074 363.513 196.51 362.402Z" fill="#EB5569"/>
<path opacity="0.1" d="M161.09 265.241C161.09 265.241 181.14 285.884 186.372 285.884C191.605 285.884 161.09 265.241 161.09 265.241Z" fill="black"/>
<path d="M196.51 362.402C193.947 361.311 189.268 361.965 181.25 359.576C173.232 357.187 171.681 346.423 171.681 346.423V346.389C176.995 342.948 190.451 333.231 195.755 329.678C199.486 327.186 202.533 323.524 204.316 321.096C205.052 323.352 211.045 325.397 213.487 326.64C216.046 327.943 224.295 339.36 224.295 339.36C226.028 347.745 199.073 363.513 196.51 362.402Z" fill="#FF748E"/>
<g opacity="0.1">
<path opacity="0.1" d="M123.419 171.132C123.444 171.171 123.479 171.205 123.51 171.245C123.661 171.058 123.817 170.871 123.978 170.694C123.806 170.857 123.619 171.003 123.419 171.132Z" fill="black"/>
<path opacity="0.1" d="M135.103 193.662C135.315 190.934 136.81 188.531 138.21 186.132C137.294 185.788 136.377 185.439 135.471 185.075C135.557 184.524 135.601 183.967 135.602 183.409C134.187 185.867 132.645 188.285 132.429 191.052C132.172 194.336 133.829 197.442 135.3 200.391C140.96 211.794 144.45 225.134 140.195 237.107C138.346 242.307 135.159 246.937 132.827 251.965C128.752 260.869 127.554 270.774 129.392 280.36C130.545 286.322 132.882 292.215 132.308 298.255C131.301 308.651 122.12 316.387 112.913 321.7C109.151 323.873 104.755 325.863 100.549 325.721C100.16 326.333 99.7259 326.916 99.2501 327.466C104.533 329.741 110.612 327.181 115.583 324.31C124.794 319.002 133.995 311.285 135.002 300.87C135.577 294.83 133.24 288.936 132.081 282.974C130.243 273.39 131.437 263.486 135.506 254.58C137.823 249.557 141.046 244.922 142.874 239.722C147.13 227.748 143.635 214.409 137.979 203.006C136.513 200.037 134.846 196.945 135.103 193.662Z" fill="black"/>
<path opacity="0.1" d="M204.049 117.945C203.554 117.449 203.022 116.989 202.458 116.569C208.562 124.295 199.748 130.862 199.31 139.178C198.917 146.698 199.562 163.518 191.026 167.283C186.805 169.146 182.278 165.066 177.649 164.968C174.31 164.899 171.258 166.968 169.219 169.544C167.179 172.119 165.925 175.186 164.449 178.106C163.103 180.755 161.554 183.302 159.816 185.724C158.809 187.164 157.63 188.6 156.029 189.411C153.259 190.821 149.889 190.03 146.903 189.116C143.999 188.224 141.121 187.241 138.271 186.167C138.265 186.679 138.221 187.189 138.14 187.695C141.897 189.189 145.709 190.53 149.577 191.716C152.559 192.63 155.928 193.421 158.703 192.011C160.299 191.2 161.458 189.76 162.49 188.319C164.23 185.901 165.777 183.355 167.118 180.706C168.599 177.786 169.848 174.714 171.893 172.139C173.938 169.563 176.985 167.499 180.319 167.568C184.952 167.666 189.479 171.746 193.7 169.883C202.236 166.118 201.587 149.298 201.984 141.778C202.448 133.034 212.198 126.222 204.049 117.945Z" fill="black"/>
</g>
<path opacity="0.1" d="M137.687 186.973C137.259 187.71 136.841 188.447 136.458 189.204C136.312 189.494 136.171 189.794 136.045 190.094C133.406 187.499 126.98 181.33 123.394 179.418C124.266 177.594 125.402 175.903 126.768 174.395C126.768 174.395 135.315 178.804 137.687 186.973Z" fill="black"/>
<path d="M137.923 186.57C135.944 177.826 126.768 173.093 126.768 173.093C125.401 174.599 124.264 176.291 123.394 178.116C127.176 180.136 134.146 186.909 136.458 189.204L137.923 186.57Z" fill="#EB5569"/>
<defs>
<linearGradient id="paint0_linear_4_6" x1="367.662" y1="46.8877" x2="367.662" y2="37.8537" gradientUnits="userSpaceOnUse">
<stop stop-color="#808080" stop-opacity="0.25"/>
<stop offset="0.54" stop-color="#808080" stop-opacity="0.12"/>
<stop offset="1" stop-color="#808080" stop-opacity="0.1"/>
</linearGradient>
<linearGradient id="paint1_linear_4_6" x1="231049" y1="323661" x2="231049" y2="22566.3" gradientUnits="userSpaceOnUse">
<stop stop-color="#808080" stop-opacity="0.25"/>
<stop offset="0.54" stop-color="#808080" stop-opacity="0.12"/>
<stop offset="1" stop-color="#808080" stop-opacity="0.1"/>
</linearGradient>
</defs>
</svg>
